<?xml version="1.0" encoding="UTF-8"?>
<svg width="32px" height="32px" viewBox="0 0 32 32" version="1.1" xmlns="http://www.w3.org/2000/svg" xmlns:xlink="http://www.w3.org/1999/xlink">
    <!-- Generator: Sketch 49 (51002) - http://www.bohemiancoding.com/sketch -->
    <title>Version</title>
    <desc>Created with Sketch.</desc>
    <defs></defs>
    <g id="Version" stroke="none" stroke-width="1" fill="none" fill-rule="evenodd">
        <path d="M13,0 L31,0 C31.5522847,-1.01453063e-16 32,0.44771525 32,1 L32,31 C32,31.5522847 31.5522847,32 31,32 L13,32 C12.4477153,32 12,31.5522847 12,31 L12,1 C12,0.44771525 12.4477153,1.01453063e-16 13,0 Z M14,2 L14,30 L30,30 L30,2 L14,2 Z" id="L" fill="#FFFFFF"></path>
        <path d="M11,4 L11,6 L8,6 L8,26 L11,26 L11,28 L7,28 C6.44771525,28 6,27.5522847 6,27 L6,5 C6,4.44771525 6.44771525,4 7,4 L11,4 Z" id="M" fill="#FFFFFF"></path>
        <path d="M5,7 L5,9 L2,9 L2,23 L5,23 L5,25 L1,25 C0.44771525,25 6.76353751e-17,24.5522847 0,24 L0,8 C-6.76353751e-17,7.44771525 0.44771525,7 1,7 L5,7 Z" id="S" fill="#FFFFFF"></path>
    </g>
</svg>
